HIERARCHY
ROOT Bip001_Pelvis
{
  OFFSET 7.937 94.8971 -8.5489
  CHANNELS 6 Xposition Yposition Zposition Zrotation Xrotation Yrotation
  JOINT Bip001_Spine
  {
    OFFSET 1.44608e-005 10.4157 -0.0118244
    CHANNELS 3 Zrotation Xrotation Yrotation
    JOINT Bip001_L_Thigh
    {
      OFFSET 11.2582 -10.4157 0.0118432
      CHANNELS 3 Zrotation Xrotation Yrotation
      JOINT Bip001_L_Calf
      {
        OFFSET -0.720717 -44.8687 0.366937
        CHANNELS 3 Zrotation Xrotation Yrotation
        JOINT Bip001_L_Foot
        {
          OFFSET -0.664439 -41.3745 -3.62995
          CHANNELS 3 Zrotation Xrotation Yrotation
          JOINT Bip001_L_Toe0
          {
            OFFSET 0.0541047 -10.4146 13.4033
            CHANNELS 3 Zrotation Xrotation Yrotation
            End Site
            {
              OFFSET -1.04503e-005 0 7.70137
            }
          }
        }
      }
    }
    JOINT Bip001_R_Thigh
    {
      OFFSET -11.2582 -10.4156 0.0118122
      CHANNELS 3 Zrotation Xrotation Yrotation
      JOINT Bip001_R_Calf
      {
        OFFSET 0.72059 -44.8687 0.36676
        CHANNELS 3 Zrotation Xrotation Yrotation
        JOINT Bip001_R_Foot
        {
          OFFSET 0.664321 -41.3745 -3.62979
          CHANNELS 3 Zrotation Xrotation Yrotation
          JOINT Bip001_R_Toe0
          {
            OFFSET -0.05417 -10.4146 13.4033
            CHANNELS 3 Zrotation Xrotation Yrotation
            End Site
            {
              OFFSET -1.04873e-005 0 7.70137
            }
          }
        }
      }
    }
    JOINT Bip001_Spine1
    {
      OFFSET 1.90638e-005 14.8539 1.10727
      CHANNELS 3 Zrotation Xrotation Yrotation
      JOINT Bip001_Spine2
      {
        OFFSET 2.28934e-005 14.7848 -1.7233
        CHANNELS 3 Zrotation Xrotation Yrotation
        JOINT Bip001_Neck
        {
          OFFSET 2.24514e-005 15.6905 -0.498826
          CHANNELS 3 Zrotation Xrotation Yrotation
          JOINT Bip001_L_Clavicle
          {
            OFFSET 6.17691 -0.000591152 0.00852867
            CHANNELS 3 Zrotation Xrotation Yrotation
            JOINT Bip001_L_UpperArm
            {
              OFFSET 11.773 -0.0611878 0.00197697
              CHANNELS 3 Zrotation Xrotation Yrotation
              JOINT Bip001_L_Forearm
              {
                OFFSET 26.4515 0.0817568 -2.19579
                CHANNELS 3 Zrotation Xrotation Yrotation
                JOINT Bip001_L_Hand
                {
                  OFFSET 32.8677 0.156744 1.67112
                  CHANNELS 3 Zrotation Xrotation Yrotation
                  JOINT Bip001_L_Finger0
                  {
                    OFFSET 6.16268 -2.25226 6.01674
                    CHANNELS 3 Zrotation Xrotation Yrotation
                    End Site
                    {
                      OFFSET 4.30499 -1.46662 0.618148
                    }
                  }
                  JOINT Bip001_L_Finger1
                  {
                    OFFSET 11.2957 -0.718374 -0.201963
                    CHANNELS 3 Zrotation Xrotation Yrotation
                    End Site
                    {
                      OFFSET 6.31952 -0.405163 -0.0802303
                    }
                  }
                }
              }
            }
          }
          JOINT Bip001_R_Clavicle
          {
            OFFSET -6.17691 -0.000574027 0.00851165
            CHANNELS 3 Zrotation Xrotation Yrotation
            JOINT Bip001_R_UpperArm
            {
              OFFSET -11.773 -0.0611516 0.00194365
              CHANNELS 3 Zrotation Xrotation Yrotation
              JOINT Bip001_R_Forearm
              {
                OFFSET -26.4514 0.0822334 -2.19736
                CHANNELS 3 Zrotation Xrotation Yrotation
                JOINT Bip001_R_Hand
                {
                  OFFSET -32.8677 0.156817 1.67144
                  CHANNELS 3 Zrotation Xrotation Yrotation
                  JOINT Bip001_R_Finger0
                  {
                    OFFSET -6.1627 -2.25224 6.0167
                    CHANNELS 3 Zrotation Xrotation Yrotation
                    End Site
                    {
                      OFFSET -4.30499 -1.46662 0.618134
                    }
                  }
                  JOINT Bip001_R_Finger1
                  {
                    OFFSET -11.2958 -0.718344 -0.201994
                    CHANNELS 3 Zrotation Xrotation Yrotation
                    End Site
                    {
                      OFFSET -6.31952 -0.405146 -0.0802475
                    }
                  }
                }
              }
            }
          }
          JOINT Bip001_Head
          {
            OFFSET 1.11782e-005 11.4912 2.09908
            CHANNELS 3 Zrotation Xrotation Yrotation
            End Site
            {
              OFFSET 2.95144e-005 21.2823 -2.83069e-005
            }
          }
        }
      }
    }
  }
}
MOTION
Frames:	14
Frame Time:	0.04
8.48504 95.5112 -7.28227 -0.165354 -0.0502535 -0.294378 -0.58254 0.243908 0.0140696 5.35871 -7.29984 6.93 -0.726756 15.0469 -0.739484 -3.00993 -7.0756 2.41649 0.875917 -9.96646 0.807697 -7.61331 -5.62784 0.52857 0.257355 14.0884 2.43527 1.48488 -7.80768 -9.87166 -0.642966 -11.8446 0.945471 -1.28351 0.498234 0.0201781 -1.27875 0.498213 0.0209525 -1.09758 1.21274 1.18346 1.09316 -1.16645 1.95581 0.891289 0.101834 -3.37984 0.391396 9.42303 -4.64773 -10.8686 -0.663607 -1.91755 -2.18663e-015 0 -1.59028e-015 1.98785e-016 -1.59028e-015 -1.59028e-015 0.711505 -1.18417 -4.1248 -4.54581 -0.94312 6.7165 0.339586 2.66682 6.35914 10.8418 -1.27595 0.909508 8.94531e-016 0 -0 3.97569e-016 0 -1.59028e-015 0.754507 -1.01709 0.668858 
8.49538 95.4971 -7.30363 -0.152198 0.0109509 -0.184492 -0.581449 0.235001 0.00802777 5.3509 -7.4357 7.00905 -0.726949 15.1612 -0.939261 -2.97151 -7.09964 2.45948 0.874217 -9.97699 0.797042 -7.64277 -5.70783 0.478707 0.263653 14.1897 2.46076 1.48457 -7.87284 -9.93537 -0.651161 -11.8447 0.922166 -1.2832 0.471595 -0.00312698 -1.27662 0.471586 -0.00287398 -1.0263 1.14477 1.14048 1.0681 -1.09697 2.00895 0.860014 0.152491 -3.43981 0.390352 9.48781 -4.65176 -10.8589 -0.654834 -2.04923 4.77083e-015 -6.36111e-015 7.95139e-016 3.57812e-015 -4.77083e-015 7.95139e-016 0.585683 -1.11649 -4.14374 -4.51045 -0.945958 6.73398 0.414001 2.77572 6.25912 10.877 -1.27681 0.998078 2.98177e-016 -7.95139e-016 -0 1.19271e-015 0 1.59028e-015 0.660919 -0.949189 0.667786 
8.50305 95.5059 -7.31257 -0.135857 0.0553289 -0.0928785 -0.580368 0.222821 0.00643471 5.30918 -7.45214 6.99128 -0.690336 15.0785 -0.877511 -2.99253 -7.03588 2.32624 0.873769 -9.9805 0.79418 -7.65496 -5.69936 0.497408 0.262962 14.1414 2.41749 1.47864 -7.84936 -9.99879 -0.636476 -11.8447 0.917977 -1.28309 0.446642 -0.0124436 -1.27666 0.446641 -0.00722492 -0.991347 1.14621 1.11533 1.06653 -1.09779 2.04467 0.860783 0.237916 -3.53506 0.355148 9.54749 -4.61883 -10.4816 -0.576012 -2.13427 -1.98785e-016 1.59028e-015 -7.95139e-016 0 0 -0 0.511524 -1.12002 -4.15099 -4.38656 -1.13394 6.67681 0.334972 2.65947 6.25323 10.9663 -1.12716 0.802664 1.49088e-015 0 1.59028e-015 7.95139e-016 -7.95139e-016 1.59028e-015 0.654626 -0.952162 0.660582 
8.51391 95.4942 -7.32032 -0.117743 0.0791388 -0.0162106 -0.579252 0.216038 0.0050935 5.28903 -7.53237 6.8784 -0.737735 15.1565 -0.989752 -2.94596 -7.06242 2.48082 0.875775 -9.98172 0.805657 -7.69065 -5.74797 0.55897 0.295167 14.2324 2.32773 1.49248 -7.91279 -10.0417 -0.650274 -11.8447 0.911444 -1.28301 0.427337 -0.0126697 -1.27905 0.427352 -0.00811695 -0.94078 1.15479 1.11528 1.02049 -1.10537 2.06185 0.921496 0.476295 -3.60171 0.44952 9.64507 -4.71319 -10.3649 -0.527445 -2.11015 -1.78906e-015 -4.77083e-015 3.18055e-015 -1.78906e-015 -4.77083e-015 -0 0.413485 -1.13701 -4.27651 -4.28086 -1.16559 6.71745 0.294752 2.67704 6.21406 10.8997 -1.18617 0.809137 -5.96354e-016 -3.97569e-016 -1.59028e-015 -2.98177e-016 -3.97569e-016 -1.59028e-015 0.611851 -0.963741 0.679691 
8.51919 95.4997 -7.30347 -0.116873 0.0619413 0.00418953 -0.57807 0.213496 0.00393087 5.27133 -7.4739 6.95239 -0.688464 15.1005 -1.03756 -2.96422 -7.04802 2.41034 0.877485 -9.97393 0.816146 -7.68979 -5.68436 0.526412 0.280447 14.1811 2.35663 1.4861 -7.89432 -10.0525 -0.638829 -11.8447 0.909985 -1.28276 0.424421 -0.012702 -1.28172 0.424429 -0.00846147 -0.891378 1.11517 1.12734 0.999472 -1.06535 2.09149 0.999254 0.737935 -3.63843 0.496054 9.6245 -4.81388 -10.3027 -0.500007 -2.13217 5.96354e-016 1.59028e-015 -0 -1.39149e-015 1.59028e-015 7.95139e-016 0.334152 -1.09834 -4.28623 -4.17335 -1.31749 6.67086 0.295217 2.59285 6.26271 10.7833 -1.20761 0.759031 -3.97569e-016 3.97569e-016 -1.59028e-015 -9.93923e-017 3.97569e-016 -0 0.574498 -0.908906 0.714431 
8.53022 95.4916 -7.28467 -0.105026 0.0619396 -0.000772933 -0.576792 0.2112 0.00287353 5.26399 -7.47677 6.89499 -0.738763 15.1406 -1.03643 -2.9261 -7.08417 2.49157 0.87562 -9.96612 0.806006 -7.71279 -5.69782 0.501869 0.283133 14.2391 2.41477 1.48075 -7.93844 -10.0752 -0.637349 -11.8447 0.908762 -1.27992 0.423071 -0.0118494 -1.28025 0.423078 -0.00806731 -0.953248 1.15358 1.15816 1.07411 -1.10995 2.11145 1.0141 0.865551 -3.69695 0.56001 9.59228 -4.88361 -10.0699 -0.471385 -2.19145 3.77691e-015 0 -7.95139e-016 1.98785e-015 0 -7.95139e-016 0.422008 -1.13973 -4.33059 -4.20836 -1.32311 6.69956 0.273929 2.62486 6.26665 10.9335 -1.10562 0.706869 -2.20695e-032 7.95139e-016 1.59028e-015 1.98785e-016 3.97569e-016 -0 0.606486 -0.949137 0.714167 
8.53862 95.5016 -7.25921 -0.102235 0.0439411 -0.0447086 -0.573102 0.208736 0.00184822 5.23302 -7.3905 6.84849 -0.700752 15.053 -0.912486 -2.96199 -7.06957 2.4367 0.876978 -9.96576 0.813884 -7.7174 -5.63125 0.546943 0.286778 14.1512 2.36099 1.47248 -7.89257 -10.0277 -0.617791 -11.8447 0.907491 -1.25472 0.4216 -0.00997355 -1.25587 0.421606 -0.00674972 -1.01557 1.11391 1.18988 1.15499 -1.07377 2.12364 0.936602 0.71427 -3.70904 0.655769 9.49967 -5.02671 -9.89118 -0.442873 -2.10973 -1.19271e-015 -1.59028e-015 -3.97569e-015 -3.97569e-016 3.18056e-015 -1.59028e-015 0.491333 -1.10267 -4.39663 -4.23611 -1.30545 6.78731 0.209591 2.64796 6.26927 11.1403 -0.999759 0.629459 -7.95139e-016 0 -0 -1.98785e-016 7.95139e-016 1.59028e-015 0.588956 -0.921755 0.735185 
8.54747 95.4963 -7.2442 -0.0955851 0.0315478 -0.0695697 -0.563114 0.205863 0.000781664 5.20327 -7.36448 6.87368 -0.682671 15.0744 -0.931106 -2.96918 -7.09508 2.43758 0.879829 -9.96303 0.830578 -7.74593 -5.62863 0.576379 0.296546 14.1946 2.3732 1.46844 -7.92385 -10.0413 -0.622329 -11.8447 0.905893 -1.23802 0.414832 -0.00809772 -1.23905 0.414832 -0.00543213 -1.05394 1.14316 1.24357 1.19299 -1.10606 2.12542 0.909779 0.474043 -3.80494 0.612255 9.56437 -4.96243 -9.76965 -0.421085 -2.16851 7.95139e-016 1.59028e-015 -0 -3.97569e-016 1.59028e-015 -0 0.548151 -1.13464 -4.47063 -4.24098 -1.32433 6.84404 0.0961751 2.71471 6.41524 11.0836 -1.04258 0.645271 1.10348e-032 3.97569e-016 -1.59028e-015 2.98177e-016 0 -0 0.625959 -0.98232 0.768683 
8.55383 95.494 -7.23104 -0.0869274 0.0370916 -0.0525103 -0.55839 0.202829 -0.000357318 5.17711 -7.35978 6.87648 -0.667797 15.0645 -0.98711 -2.96566 -7.10635 2.46356 0.881937 -9.96186 0.842858 -7.77074 -5.63008 0.559735 0.310052 14.2128 2.40576 1.46182 -7.94326 -10.0648 -0.61721 -11.8448 0.902465 -1.22706 0.402601 -0.00724507 -1.22558 0.402602 -0.00687715 -1.00304 1.19011 1.26472 1.15357 -1.15419 2.04937 0.87344 0.465891 -3.77817 0.568467 9.6088 -4.90717 -9.94405 -0.449188 -2.17101 5.96354e-016 -7.95139e-015 1.59028e-015 -5.96354e-016 -7.95139e-015 1.59028e-015 0.503545 -1.18191 -4.48825 -4.16684 -1.28611 6.81938 -0.161814 2.6361 6.70482 11.0152 -1.0747 0.662856 -9.93923e-017 3.97569e-016 -0 -0 0 3.18055e-015 0.625148 -1.08472 0.805558 
8.56167 95.4928 -7.20969 -0.0782566 0.0361099 -0.0477422 -0.558367 0.200309 -0.00686116 5.16173 -7.33997 6.90583 -0.66533 15.0619 -1.01686 -2.95875 -7.11659 2.47026 0.880336 -9.96072 0.833697 -7.78361 -5.6094 0.544651 0.29425 14.2124 2.42403 1.46721 -7.96037 -10.0614 -0.613773 -11.8448 0.897652 -1.22417 0.392411 -0.0146878 -1.21976 0.392399 -0.0140227 -0.9399 1.20475 1.26688 1.11184 -1.1693 1.99769 0.818758 0.425407 -3.83942 0.456527 9.62445 -4.76693 -10.0007 -0.468481 -2.20389 -2.98177e-015 -1.59028e-015 2.38542e-015 -1.39149e-015 -1.59028e-015 1.59028e-015 0.410481 -1.19524 -4.53731 -4.07996 -1.22528 6.847 -0.35567 2.51601 6.98301 10.9767 -1.0544 0.733895 -2.98177e-016 -3.97569e-016 -1.59028e-015 -1.98785e-016 -3.97569e-016 -0 0.612519 -1.09897 0.830918 
8.57301 95.492 -7.19214 -0.0579267 0.0347173 -0.0417303 -0.558348 0.198049 -0.0124342 5.1305 -7.33258 6.87854 -0.671311 15.043 -0.982707 -2.95781 -7.10893 2.4608 0.879581 -9.95964 0.829424 -7.81199 -5.60965 0.568056 0.297731 14.2315 2.41479 1.46581 -7.98215 -10.0808 -0.609817 -11.8448 0.897567 -1.22115 0.390639 -0.0326717 -1.21553 0.390627 -0.032531 -0.925757 1.20687 1.26127 1.07116 -1.171 2.04363 0.813421 0.503269 -3.94833 0.394619 9.59818 -4.66391 -9.87891 -0.459752 -2.22711 -1.78906e-015 -3.18055e-015 -0 1.98785e-016 -4.77083e-015 7.95139e-016 0.401408 -1.19786 -4.53758 -4.10991 -1.06765 6.90194 -0.450153 2.4329 7.19187 11.0693 -1.12605 0.802517 -7.95139e-016 7.95139e-016 -0 -9.93923e-017 3.97569e-016 3.18055e-015 0.639528 -1.06192 0.823887 
8.57669 95.4915 -7.1703 -0.0517209 0.0340096 -0.0369796 -0.558342 0.195441 -0.0145075 5.12703 -7.30185 6.91676 -0.662488 15.0363 -1.00648 -2.9536 -7.12617 2.44602 0.880347 -9.95866 0.833936 -7.81597 -5.58514 0.647243 0.322126 14.2196 2.40871 1.44295 -7.99094 -10.1433 -0.600369 -11.8448 0.887621 -1.216 0.38962 -0.0447254 -1.21187 0.389608 -0.0448303 -0.898976 1.19803 1.23798 1.02191 -1.16113 2.06231 0.801649 0.567631 -3.95157 0.462535 9.71208 -4.78382 -9.99926 -0.481346 -2.22084 2.18663e-015 3.18055e-015 -7.95139e-016 2.98177e-015 3.18056e-015 -7.95139e-016 0.410218 -1.18945 -4.54574 -4.20608 -1.14528 7.08322 -0.382199 2.51211 7.15082 11.071 -1.18528 0.716335 4.96962e-016 -1.19271e-015 -3.18055e-015 3.97569e-016 -1.59028e-015 -1.59028e-015 0.634312 -0.990576 0.8053 
8.58158 95.4844 -7.14199 -0.0514762 0.0190229 -0.0667808 -0.558341 0.192825 -0.0150391 5.12899 -7.27938 6.9392 -0.702044 15.0755 -1.09422 -2.9167 -7.16654 2.55939 0.877902 -9.95792 0.819861 -7.83507 -5.58239 0.600995 0.310783 14.2735 2.45977 1.46329 -8.03783 -10.1173 -0.615142 -11.8448 0.896183 -1.2132 0.388995 -0.0368588 -1.21087 0.388984 -0.036819 -0.916264 1.17484 1.21994 0.997304 -1.13687 2.13268 0.790104 0.675783 -4.02963 0.47707 9.58509 -4.92772 -10.0317 -0.482711 -2.29553 2.98177e-015 -1.59028e-015 7.95139e-016 1.59028e-015 -3.18056e-015 1.59028e-015 0.355227 -1.16562 -4.46264 -4.14892 -1.16898 7.09087 -0.429588 2.66452 7.08769 11.0713 -1.13203 0.728491 2.98177e-016 -3.97569e-016 -3.18055e-015 2.98177e-016 0 -3.18055e-015 0.653683 -0.882527 0.780592 
8.58366 95.4915 -7.12678 -0.0513039 0.015775 -0.125406 -0.558403 0.190537 0.00346343 5.10323 -7.22451 6.86907 -0.668809 15.0055 -0.981764 -2.95201 -7.15735 2.53256 0.880336 -9.95738 0.833977 -7.83141 -5.55656 0.541702 0.29429 14.2214 2.4868 1.47107 -8.00472 -10.0515 -0.60983 -11.8448 0.901513 -1.21346 0.38841 2.16783e-005 -1.21112 0.388399 2.19544e-005 -0.878551 1.165 1.21036 0.951449 -1.1259 2.14163 0.789258 0.616578 -4.1207 0.486508 9.64907 -4.98387 -9.80811 -0.436778 -2.37422 3.97569e-016 1.59028e-015 1.59028e-015 7.95139e-016 1.59028e-015 -0 0.292833 -1.15411 -4.51853 -4.20419 -1.03709 7.17282 -0.350925 2.64232 7.01745 11.1134 -1.13584 0.773146 5.96354e-016 -7.95139e-016 -3.18055e-015 4.96962e-016 0 -1.59028e-015 0.627861 -0.851208 0.788024 
